<svg width="740" height="146" viewBox="0 0 740 146" fill="none" xmlns="http://www.w3.org/2000/svg">
<path d="M57.4 145.4C41 145.4 27.5333 141.533 17 133.8C6.46667 125.933 0.8 114.733 2.98023e-08 100.2H41.8C42.2 105.133 43.6667 108.733 46.2 111C48.7333 113.267 52 114.4 56 114.4C59.6 114.4 62.5333 113.533 64.8 111.8C67.2 109.933 68.4 107.4 68.4 104.2C68.4 100.067 66.4667 96.8667 62.6 94.6C58.7333 92.3333 52.4667 89.8 43.8 87C34.6 83.9333 27.1333 81 21.4 78.2C15.8 75.2667 10.8667 71.0667 6.6 65.6C2.46667 60 0.4 52.7333 0.4 43.8C0.4 34.7333 2.66667 27 7.2 20.6C11.7333 14.0667 18 9.13333 26 5.79999C34 2.46666 43.0667 0.799996 53.2 0.799996C69.6 0.799996 82.6667 4.66666 92.4 12.4C102.267 20 107.533 30.7333 108.2 44.6H65.6C65.4667 40.3333 64.1333 37.1333 61.6 35C59.2 32.8667 56.0667 31.8 52.2 31.8C49.2667 31.8 46.8667 32.6667 45 34.4C43.1333 36.1333 42.2 38.6 42.2 41.8C42.2 44.4667 43.2 46.8 45.2 48.8C47.3333 50.6667 49.9333 52.3333 53 53.8C56.0667 55.1333 60.6 56.8667 66.6 59C75.5333 62.0667 82.8667 65.1333 88.6 68.2C94.4667 71.1333 99.4667 75.3333 103.6 80.8C107.867 86.1333 110 92.9333 110 101.2C110 109.6 107.867 117.133 103.6 123.8C99.4667 130.467 93.4 135.733 85.4 139.6C77.5333 143.467 68.2 145.4 57.4 145.4ZM234.423 2.99999V34.2H196.823V144H157.623V34.2H120.423V2.99999H234.423ZM287.327 2.99999V84.8C287.327 92.4 289.06 98.2667 292.527 102.4C296.127 106.533 301.527 108.6 308.727 108.6C315.927 108.6 321.327 106.533 324.927 102.4C328.66 98.1333 330.527 92.2667 330.527 84.8V2.99999H369.727V84.8C369.727 97.7333 366.993 108.8 361.527 118C356.06 127.067 348.593 133.933 339.127 138.6C329.793 143.133 319.393 145.4 307.927 145.4C296.46 145.4 286.193 143.133 277.127 138.6C268.193 133.933 261.127 127.067 255.927 118C250.86 108.933 248.327 97.8667 248.327 84.8V2.99999H287.327ZM447.109 2.99999C461.909 2.99999 474.843 5.99999 485.909 12C497.109 17.8667 505.709 26.1333 511.709 36.8C517.709 47.4667 520.709 59.6667 520.709 73.4C520.709 87 517.643 99.1333 511.509 109.8C505.509 120.467 496.909 128.867 485.709 135C474.643 141 461.776 144 447.109 144H391.309V2.99999H447.109ZM444.109 109.4C455.576 109.4 464.576 106.267 471.109 100C477.643 93.7333 480.909 84.8667 480.909 73.4C480.909 61.8 477.643 52.8667 471.109 46.6C464.576 40.2 455.576 37 444.109 37H430.509V109.4H444.109ZM577.58 2.99999V144H538.38V2.99999H577.58ZM667.503 145.4C654.303 145.4 642.17 142.333 631.103 136.2C620.036 129.933 611.236 121.333 604.703 110.4C598.303 99.3333 595.103 86.8667 595.103 73C595.103 59.1333 598.303 46.7333 604.703 35.8C611.236 24.7333 620.036 16.1333 631.103 10C642.17 3.86666 654.303 0.799996 667.503 0.799996C680.836 0.799996 692.97 3.86666 703.903 10C714.97 16.1333 723.703 24.7333 730.103 35.8C736.503 46.7333 739.703 59.1333 739.703 73C739.703 86.8667 736.503 99.3333 730.103 110.4C723.703 121.333 714.97 129.933 703.903 136.2C692.836 142.333 680.703 145.4 667.503 145.4ZM667.503 109C677.503 109 685.37 105.733 691.103 99.2C696.97 92.6667 699.903 83.9333 699.903 73C699.903 61.8 696.97 53 691.103 46.6C685.37 40.0667 677.503 36.8 667.503 36.8C657.37 36.8 649.436 40.0667 643.703 46.6C637.97 53 635.103 61.8 635.103 73C635.103 84.0667 637.97 92.8667 643.703 99.4C649.436 105.8 657.37 109 667.503 109Z" fill="white"/>
</svg>
