<svg width="100" height="100" viewBox="0 0 100 100" fill="none" xmlns="http://www.w3.org/2000/svg">
<path fill-rule="evenodd" clip-rule="evenodd" d="M100 0H0V100H100V0ZM39.8 77.6C43.2667 79.1333 47.1667 79.9 51.5 79.9C55.7667 79.9 59.4667 79.2 62.6 77.8C65.8 76.4 68.2667 74.4667 70 72C71.7333 69.5333 72.6 66.7333 72.6 63.6C72.5333 60.0667 71.5667 57.2333 69.7 55.1C67.8333 52.9667 65.6 51.3667 63 50.3C60.4667 49.1667 57.2 48.0667 53.2 47C50.2 46.1333 47.9333 45.4333 46.4 44.9C44.8667 44.3 43.5667 43.5 42.5 42.5C41.4333 41.5 40.9 40.2667 40.9 38.8C40.9 36.9333 41.7 35.4333 43.3 34.3C44.9 33.1667 47.2 32.6 50.2 32.6C53.2667 32.6 55.7 33.3333 57.5 34.8C59.3 36.2667 60.3 38.2333 60.5 40.7H71.9C71.6333 35.2333 69.5667 30.9333 65.7 27.8C61.9 24.6 56.8667 23 50.6 23C46.4 23 42.6667 23.7 39.4 25.1C36.2 26.5 33.7333 28.4333 32 30.9C30.2667 33.3 29.4 35.9667 29.4 38.9C29.4 42.5 30.3333 45.4 32.2 47.6C34.1333 49.8 36.4 51.4333 39 52.5C41.6 53.5667 44.9667 54.6667 49.1 55.8C53.3667 57 56.4667 58.1 58.4 59.1C60.4 60.1 61.4 61.6333 61.4 63.7C61.4 65.6333 60.5 67.2333 58.7 68.5C56.9667 69.7 54.5 70.3 51.3 70.3C48.2333 70.3 45.6667 69.5333 43.6 68C41.6 66.4 40.5 64.4333 40.3 62.1H28.5C28.6333 65.4333 29.7 68.4667 31.7 71.2C33.7 73.8667 36.4 76 39.8 77.6Z" fill="white"/>
</svg>
